<svg xmlns="http://www.w3.org/2000/svg" width="2500" height="2500" viewBox="0 0 2000 2000">

<g fill="#6E6851">
<path d="M1247 1811.07a60.59 60.59 0 1 1 79.17 32.78 60.61 60.61 0 0 1-79.17-32.78M610.69 265.61a60.59 60.59 0 1 1 79.17 32.78 60.61 60.61 0 0 1-79.17-32.78M1780.76 753a60.59 60.59 0 1 1 32.78-79.17 60.61 60.61 0 0 1-32.78 79.17M265.61 1389.31a60.59 60.59 0 1 1 32.78-79.17 60.61 60.61 0 0 1-32.78 79.17"/>
<path d="M1734.39 1389.31a60.59 60.59 0 1 1 79.17-32.79 60.58 60.58 0 0 1-79.17 32.79M219.24 753a60.59 60.59 0 1 1 79.17-32.79A60.58 60.58 0 0 1 219.24 753M1359 265.61a60.59 60.59 0 1 1-32.79-79.17 60.58 60.58 0 0 1 32.79 79.17M722.65 1811.07a60.59 60.59 0 1 1-32.79-79.17 60.58 60.58 0 0 1 32.79 79.17"/>
</g>
<path d="M1202.22 899h45.24a55.58 55.58 0 0 0 55.54-55.58V697h-146.41a55.59 55.59 0 0 0-55.59 55.56V798a101 101 0 1 1-202 0v-47.45A53.59 53.59 0 0 0 845.41 697H697v606h147.3a54.72 54.72 0 0 0 54.7-54.7V1202a101 101 0 0 1 101-101v.2a101 101 0 0 1 101 101v45.67a55.14 55.14 0 0 0 55.14 55.14H1303v-146.86a55.14 55.14 0 0 0-55.14-55.14H1202a101 101 0 0 1-101-101h.2a101 101 0 0 1 101-101" fill="#154360"/>
</svg>